<svg width="68" height="95" viewBox="0 0 68 95" fill="none" xmlns="http://www.w3.org/2000/svg">
<path d="M0 10V95H68V10H0Z" fill="#6C52CF"/>
<path d="M63.45 13C64.306 13 65 13 65 13V89C65 89 64.306 89 63.45 89H4.55C3.69399 89 3 89 3 89V13C3 13 3.69399 13 4.55 13H63.45Z" fill="white"/>
<path fill-rule="evenodd" clip-rule="evenodd" d="M15 41H24C25.6537 41 27 39.6537 27 38V29C27 27.3463 25.6537 26 24 26H15C13.3463 26 12 27.3463 12 29V38C12 39.6537 13.3463 41 15 41ZM15 38V29H24L24.003 38H15Z" fill="#B4B6BC"/>
<path d="M35.6 29H31.4C30.6261 29 30 28.3291 30 27.5C30 26.6709 30.6261 26 31.4 26H35.6C36.3738 26 37 26.6709 37 27.5C37 28.3291 36.3738 29 35.6 29Z" fill="#5C546A"/>
<path d="M53.5294 36H31.4706C30.6577 36 30 35.3291 30 34.5C30 33.6709 30.6577 33 31.4706 33H53.5294C54.3423 33 55 33.6709 55 34.5C55 35.3291 54.3423 36 53.5294 36Z" fill="#868491"/>
<path d="M46.5 51H31.5C30.6709 51 30 50.3291 30 49.5C30 48.6709 30.6709 48 31.5 48H46.5C47.3291 48 48 48.6709 48 49.5C48 50.3291 47.3291 51 46.5 51Z" fill="#5C546A"/>
<path d="M53.5294 57H31.4706C30.6577 57 30 56.3291 30 55.5C30 54.6709 30.6577 54 31.4706 54H53.5294C54.3423 54 55 54.6709 55 55.5C55 56.3291 54.3423 57 53.5294 57Z" fill="#868491"/>
<path d="M37.5 70H31.5C30.6709 70 30 69.3291 30 68.5C30 67.6709 30.6709 67 31.5 67H37.5C38.3291 67 39 67.6709 39 68.5C39 69.3291 38.3291 70 37.5 70Z" fill="#5C546A"/>
<path d="M53.5294 76H31.4706C30.6577 76 30 75.3291 30 74.5C30 73.6709 30.6577 73 31.4706 73H53.5294C54.3423 73 55 73.6709 55 74.5C55 75.3291 54.3423 76 53.5294 76Z" fill="#868491"/>
<path d="M40.5 7C39.6709 7 39 6.37385 39 5.6V4.2C39 3.42755 38.3276 2.8 37.5 2.8H31.5C30.6724 2.8 30 3.42755 30 4.2V5.6C30 6.37385 29.3291 7 28.5 7C27.6709 7 27 6.37385 27 5.6V4.2C27 1.88405 29.0186 0 31.5 0H37.5C39.9814 0 42 1.88405 42 4.2V5.6C42 6.37385 41.3291 7 40.5 7Z" fill="#868491"/>
<path d="M49.5417 4H17.4583C16.653 4 16 4.64675 16 5.44444V9.77778C16 13.7664 19.2647 17 23.2917 17H43.7083C47.7353 17 51 13.7664 51 9.77778V5.44444C51 4.64675 50.347 4 49.5417 4Z" fill="#B4B6BC"/>
<path fill-rule="evenodd" clip-rule="evenodd" d="M15 60H24C25.6537 60 27 58.6537 27 57V48C27 46.3463 25.6537 45 24 45H15C13.3463 45 12 46.3463 12 48V57C12 58.6537 13.3463 60 15 60ZM15 57V48H24L24.003 57H15Z" fill="#B4B6BC"/>
<path fill-rule="evenodd" clip-rule="evenodd" d="M15 79H24C25.6537 79 27 77.6537 27 76V67C27 65.3463 25.6537 64 24 64H15C13.3463 64 12 65.3463 12 67V76C12 77.6537 13.3463 79 15 79ZM15 76V67H24L24.003 76H15Z" fill="#B4B6BC"/>
<path d="M20.3333 56C19.9637 56 19.5941 55.8466 19.312 55.5396L16.4232 52.3968C15.8589 51.7829 15.8589 50.7884 16.4232 50.1746C16.9874 49.5608 17.9016 49.5608 18.4658 50.1746L20.3333 52.2064L26.5342 45.4604C27.0984 44.8465 28.0126 44.8465 28.5768 45.4604C29.1411 46.0742 29.1411 47.0685 28.5768 47.6823L21.3547 55.5394C21.0724 55.8466 20.7029 56 20.3333 56Z" fill="#FFCA10"/>
</svg>
